<?xml version="1.0" encoding="UTF-8"?>
<svg id="Capa_2" data-name="Capa 2" xmlns="http://www.w3.org/2000/svg" viewBox="0 0 4290.95 730.85">
  <defs>
    <style>
      .cls-1 {
        fill: #e8a600;
      }

      .cls-2 {
        fill: #fff;
        opacity: .2;
      }

      .cls-3 {
        fill: #ffbc00;
      }
    </style>
  </defs>
  <g id="_Layer_" data-name="&amp;lt;Layer&amp;gt;">
    <g>
      <g>
        <path class="cls-1" d="m758.92,297.35c12.73-12.4,10.31-24.66-4.71-28.94,6.53,5.73,5.58,14.88-3.94,24.11l-147.69,143.26c-13.88,13.46-22.55,40.03-19.28,59.04l34.87,202.28c3.28,19-8.08,27.22-25.23,18.24l-182.55-95.5c-17.15-8.97-45.23-8.97-62.38,0l-182.55,95.5c-11.56,6.05-20.47,4.26-24.06-3.34-1.46,16.89,9.66,23.74,25.96,15.17l184.66-97.08c17.35-9.12,45.75-9.12,63.1,0l184.66,97.08c17.35,9.12,28.84.77,25.52-18.55l-35.26-205.62c-3.32-19.32,5.46-46.33,19.5-60.01l149.39-145.62Z"/>
        <path class="cls-3" d="m750.27,292.52c9.52-9.23,10.46-18.37,3.94-24.11-2.99-2.63-7.55-4.54-13.58-5.41l-204.1-29.51c-6.96-1.01-14.38-3.83-21.42-7.81-12.37-7.01-23.58-17.65-29.04-28.67L394.79,12.97c-3.74-7.53-8.51-11.78-13.41-12.75-6.35-1.26-12.93,2.99-17.78,12.75l-91.28,184.04c-8.58,17.29-31.28,33.71-50.47,36.48l-204.1,29.51c-12.83,1.86-19.01,8.42-17.54,16.6.73,4.04,3.31,8.47,7.9,12.92l147.69,143.26c8.85,8.58,15.56,22.49,18.43,36.36,1.63,7.89,2.03,15.78.85,22.67l-34.87,202.28c-1.07,6.19-.56,11.22,1.18,14.9,3.59,7.61,12.5,9.39,24.06,3.34l182.55-95.5c17.15-8.97,45.22-8.97,62.38,0l182.55,95.5c17.15,8.98,28.51.76,25.23-18.24l-34.87-202.28c-3.28-19.01,5.4-45.57,19.28-59.04l147.69-143.26Z"/>
      </g>
      <path class="cls-2" d="m555.44,236.23l-18.91-2.73c-6.96-1.01-14.38-3.83-21.42-7.81-12.37-7.01-23.58-17.65-29.04-28.67L394.79,12.97c-3.74-7.53-8.51-11.78-13.41-12.75-6.35-1.26-12.93,2.99-17.78,12.75l-91.28,184.04c-8.58,17.29-31.28,33.71-50.47,36.48l-204.1,29.51c-12.83,1.86-19.01,8.42-17.54,16.6.73,4.04,3.31,8.47,7.9,12.92l147.69,143.26c2.8,2.72,5.39,5.97,7.71,9.59,11.97,1.06,24.08,1.64,36.33,1.64,153.34,0,286.77-85.17,355.6-210.78Z"/>
    </g>
    <g>
      <g>
        <path class="cls-1" d="m1639.87,297.35c12.73-12.4,10.31-24.66-4.71-28.94,6.53,5.73,5.58,14.88-3.94,24.11l-147.69,143.26c-13.88,13.46-22.55,40.03-19.28,59.04l34.87,202.28c3.28,19-8.08,27.22-25.24,18.24l-182.55-95.5c-17.15-8.97-45.23-8.97-62.38,0l-182.55,95.5c-11.56,6.05-20.47,4.26-24.06-3.34-1.46,16.89,9.66,23.74,25.96,15.17l184.66-97.08c17.35-9.12,45.75-9.12,63.1,0l184.66,97.08c17.35,9.12,28.84.77,25.52-18.55l-35.27-205.62c-3.32-19.32,5.46-46.33,19.5-60.01l149.39-145.62Z"/>
        <path class="cls-3" d="m1631.22,292.52c9.52-9.23,10.47-18.37,3.94-24.11-2.99-2.63-7.55-4.54-13.58-5.41l-204.1-29.51c-6.96-1.01-14.37-3.83-21.42-7.81-12.37-7.01-23.58-17.65-29.04-28.67l-91.28-184.04c-3.74-7.53-8.51-11.78-13.41-12.75-6.36-1.26-12.94,2.99-17.78,12.75l-91.28,184.04c-8.58,17.29-31.29,33.71-50.46,36.48l-204.1,29.51c-12.83,1.86-19.01,8.42-17.54,16.6.73,4.04,3.31,8.47,7.9,12.92l147.69,143.26c8.85,8.58,15.56,22.49,18.43,36.36,1.63,7.89,2.04,15.78.85,22.67l-34.87,202.28c-1.07,6.19-.56,11.22,1.18,14.9,3.59,7.61,12.5,9.39,24.06,3.34l182.55-95.5c17.15-8.97,45.22-8.97,62.38,0l182.55,95.5c17.15,8.98,28.51.76,25.24-18.24l-34.87-202.28c-3.28-19.01,5.4-45.57,19.28-59.04l147.69-143.26Z"/>
      </g>
      <path class="cls-2" d="m1436.39,236.23l-18.91-2.73c-6.96-1.01-14.37-3.83-21.42-7.81-12.37-7.01-23.58-17.65-29.04-28.67l-91.28-184.04c-3.74-7.53-8.51-11.78-13.41-12.75-6.36-1.26-12.94,2.99-17.78,12.75l-91.28,184.04c-8.58,17.29-31.29,33.71-50.46,36.48l-204.1,29.51c-12.83,1.86-19.01,8.42-17.54,16.6.73,4.04,3.31,8.47,7.9,12.92l147.69,143.26c2.8,2.72,5.39,5.97,7.71,9.59,11.97,1.06,24.08,1.64,36.33,1.64,153.33,0,286.76-85.17,355.6-210.78Z"/>
    </g>
    <g>
      <g>
        <path class="cls-1" d="m2520.83,297.35c12.73-12.4,10.31-24.66-4.71-28.94,6.53,5.73,5.58,14.88-3.94,24.11l-147.69,143.26c-13.88,13.46-22.56,40.03-19.28,59.04l34.87,202.28c3.27,19-8.08,27.22-25.24,18.24l-182.55-95.5c-17.15-8.97-45.23-8.97-62.38,0l-182.55,95.5c-11.56,6.05-20.47,4.26-24.06-3.34-1.46,16.89,9.66,23.74,25.96,15.17l184.66-97.08c17.35-9.12,45.75-9.12,63.1,0l184.66,97.08c17.35,9.12,28.84.77,25.52-18.55l-35.26-205.62c-3.32-19.32,5.46-46.33,19.5-60.01l149.39-145.62Z"/>
        <path class="cls-3" d="m2512.18,292.52c9.52-9.23,10.47-18.37,3.94-24.11-2.99-2.63-7.55-4.54-13.58-5.41l-204.1-29.51c-6.96-1.01-14.38-3.83-21.42-7.81-12.37-7.01-23.58-17.65-29.04-28.67l-91.28-184.04c-3.74-7.53-8.5-11.78-13.41-12.75-6.35-1.26-12.93,2.99-17.77,12.75l-91.28,184.04c-8.58,17.29-31.29,33.71-50.47,36.48l-204.1,29.51c-12.83,1.86-19.01,8.42-17.54,16.6.73,4.04,3.31,8.47,7.9,12.92l147.69,143.26c8.85,8.58,15.56,22.49,18.43,36.36,1.63,7.89,2.03,15.78.85,22.67l-34.87,202.28c-1.07,6.19-.56,11.22,1.18,14.9,3.59,7.61,12.5,9.39,24.06,3.34l182.55-95.5c17.15-8.97,45.22-8.97,62.38,0l182.55,95.5c17.15,8.98,28.51.76,25.24-18.24l-34.87-202.28c-3.28-19.01,5.4-45.57,19.28-59.04l147.69-143.26Z"/>
      </g>
      <path class="cls-2" d="m2317.35,236.23l-18.91-2.73c-6.96-1.01-14.38-3.83-21.42-7.81-12.37-7.01-23.58-17.65-29.04-28.67l-91.28-184.04c-3.74-7.53-8.5-11.78-13.41-12.75-6.35-1.26-12.93,2.99-17.77,12.75l-91.28,184.04c-8.58,17.29-31.29,33.71-50.47,36.48l-204.1,29.51c-12.83,1.86-19.01,8.42-17.54,16.6.73,4.04,3.31,8.47,7.9,12.92l147.69,143.26c2.8,2.72,5.39,5.97,7.71,9.59,11.97,1.06,24.08,1.64,36.32,1.64,153.34,0,286.77-85.17,355.6-210.78Z"/>
    </g>
    <g>
      <g>
        <path class="cls-1" d="m3401.78,297.35c12.73-12.4,10.31-24.66-4.71-28.94,6.53,5.73,5.58,14.88-3.94,24.11l-147.69,143.26c-13.88,13.46-22.56,40.03-19.28,59.04l34.87,202.28c3.28,19-8.08,27.22-25.24,18.24l-182.55-95.5c-17.15-8.97-45.23-8.97-62.38,0l-182.55,95.5c-11.56,6.05-20.47,4.26-24.06-3.34-1.46,16.89,9.66,23.74,25.96,15.17l184.66-97.08c17.35-9.12,45.75-9.12,63.1,0l184.66,97.08c17.35,9.12,28.84.77,25.52-18.55l-35.26-205.62c-3.31-19.32,5.46-46.33,19.5-60.01l149.39-145.62Z"/>
        <path class="cls-3" d="m3393.13,292.52c9.52-9.23,10.47-18.37,3.94-24.11-2.99-2.63-7.55-4.54-13.58-5.41l-204.1-29.51c-6.96-1.01-14.38-3.83-21.42-7.81-12.37-7.01-23.58-17.65-29.04-28.67l-91.28-184.04c-3.74-7.53-8.5-11.78-13.41-12.75-6.35-1.26-12.93,2.99-17.77,12.75l-91.28,184.04c-8.58,17.29-31.29,33.71-50.47,36.48l-204.1,29.51c-12.83,1.86-19.01,8.42-17.54,16.6.73,4.04,3.31,8.47,7.9,12.92l147.69,143.26c8.85,8.58,15.56,22.49,18.43,36.36,1.63,7.89,2.04,15.78.85,22.67l-34.87,202.28c-1.07,6.19-.56,11.22,1.18,14.9,3.59,7.61,12.5,9.39,24.06,3.34l182.55-95.5c17.15-8.97,45.22-8.97,62.38,0l182.55,95.5c17.15,8.98,28.51.76,25.24-18.24l-34.87-202.28c-3.28-19.01,5.4-45.57,19.28-59.04l147.69-143.26Z"/>
      </g>
      <path class="cls-2" d="m3198.3,236.23l-18.91-2.73c-6.96-1.01-14.38-3.83-21.42-7.81-12.37-7.01-23.58-17.65-29.04-28.67l-91.28-184.04c-3.74-7.53-8.5-11.78-13.41-12.75-6.35-1.26-12.93,2.99-17.77,12.75l-91.28,184.04c-8.58,17.29-31.29,33.71-50.47,36.48l-204.1,29.51c-12.83,1.86-19.01,8.42-17.54,16.6.73,4.04,3.31,8.47,7.9,12.92l147.69,143.26c2.8,2.72,5.39,5.97,7.71,9.59,11.97,1.06,24.08,1.64,36.32,1.64,153.34,0,286.77-85.17,355.6-210.78Z"/>
    </g>
    <g>
      <g>
        <path class="cls-1" d="m4282.73,297.35c12.73-12.4,10.31-24.66-4.71-28.94,6.53,5.73,5.58,14.88-3.94,24.11l-147.69,143.26c-13.88,13.46-22.55,40.03-19.28,59.04l34.87,202.28c3.27,19-8.08,27.22-25.24,18.24l-182.55-95.5c-17.15-8.97-45.23-8.97-62.38,0l-182.55,95.5c-11.56,6.05-20.47,4.26-24.06-3.34-1.46,16.89,9.66,23.74,25.96,15.17l184.66-97.08c17.35-9.12,45.75-9.12,63.1,0l184.66,97.08c17.35,9.12,28.84.77,25.52-18.55l-35.26-205.62c-3.32-19.32,5.46-46.33,19.5-60.01l149.39-145.62Z"/>
        <path class="cls-3" d="m4274.08,292.52c9.52-9.23,10.47-18.37,3.94-24.11-2.99-2.63-7.55-4.54-13.58-5.41l-204.1-29.51c-6.96-1.01-14.38-3.83-21.42-7.81-12.37-7.01-23.58-17.65-29.05-28.67l-91.28-184.04c-3.74-7.53-8.5-11.78-13.41-12.75-6.35-1.26-12.93,2.99-17.78,12.75l-91.28,184.04c-8.58,17.29-31.29,33.71-50.47,36.48l-204.1,29.51c-12.83,1.86-19.01,8.42-17.54,16.6.73,4.04,3.31,8.47,7.9,12.92l147.69,143.26c8.85,8.58,15.56,22.49,18.43,36.36,1.63,7.89,2.04,15.78.85,22.67l-34.87,202.28c-1.07,6.19-.56,11.22,1.18,14.9,3.59,7.61,12.5,9.39,24.06,3.34l182.55-95.5c17.15-8.97,45.22-8.97,62.38,0l182.55,95.5c17.15,8.98,28.51.76,25.24-18.24l-34.87-202.28c-3.28-19.01,5.4-45.57,19.28-59.04l147.69-143.26Z"/>
      </g>
      <path class="cls-2" d="m4079.25,236.23l-18.91-2.73c-6.96-1.01-14.38-3.83-21.42-7.81-12.37-7.01-23.58-17.65-29.05-28.67l-91.28-184.04c-3.74-7.53-8.5-11.78-13.41-12.75-6.35-1.26-12.93,2.99-17.78,12.75l-91.28,184.04c-8.58,17.29-31.29,33.71-50.47,36.48l-204.1,29.51c-12.83,1.86-19.01,8.42-17.54,16.6.73,4.04,3.31,8.47,7.9,12.92l147.69,143.26c2.8,2.72,5.39,5.97,7.71,9.59,11.97,1.06,24.08,1.64,36.32,1.64,153.34,0,286.77-85.17,355.6-210.78Z"/>
    </g>
  </g>
</svg>