<svg width="101" height="100" viewBox="0 0 101 100" fill="none" xmlns="http://www.w3.org/2000/svg">
<path opacity="0.3" d="M100.5 50C100.5 77.6142 78.1142 100 50.5 100C22.8858 100 0.5 77.6142 0.5 50C0.5 22.3858 22.8858 0 50.5 0C78.1142 0 100.5 22.3858 100.5 50ZM14.1339 50C14.1339 70.0844 30.4156 86.3661 50.5 86.3661C70.5844 86.3661 86.8661 70.0844 86.8661 50C86.8661 29.9156 70.5844 13.6339 50.5 13.6339C30.4156 13.6339 14.1339 29.9156 14.1339 50Z" fill="#2F2E30"/>
<circle cx="50.5" cy="50" r="36.25" fill="black"/>
<path d="M68.177 31.25H59.8604L60.902 41.6667C60.902 41.6667 62.9854 43.75 66.1104 43.75C67.7508 43.7522 69.3355 43.155 70.5666 42.0708C70.6967 41.9492 70.7937 41.7965 70.8484 41.6269C70.9031 41.4574 70.9136 41.2768 70.8791 41.1021L69.4083 32.2917C69.3591 32.0006 69.2085 31.7364 68.9831 31.5457C68.7578 31.3551 68.4722 31.2503 68.177 31.25V31.25Z" stroke="white" stroke-width="2"/>
<path d="M59.8604 31.25L60.902 41.6667C60.902 41.6667 58.8187 43.75 55.6937 43.75C52.5687 43.75 50.4854 41.6667 50.4854 41.6667V31.25H59.8604Z" stroke="#FAFAFA" stroke-width="2"/>
<path d="M50.486 31.25V41.6667C50.486 41.6667 48.4027 43.75 45.2777 43.75C42.1527 43.75 40.0693 41.6667 40.0693 41.6667L41.111 31.25H50.486Z" stroke="#FAFAFA" stroke-width="2"/>
<path d="M41.1106 31.25H32.796C32.5002 31.2499 32.2139 31.3547 31.988 31.5458C31.7622 31.7369 31.6115 32.002 31.5627 32.2938L30.0939 41.1042C30.0596 41.2789 30.0703 41.4595 30.1249 41.6289C30.1796 41.7984 30.2765 41.9512 30.4064 42.0729C31.0897 42.6771 32.6168 43.7521 34.8606 43.7521C37.9856 43.7521 40.0689 41.6688 40.0689 41.6688L41.1106 31.2521V31.25Z" stroke="#FAFAFA" stroke-width="2"/>
<path d="M31.75 43.75V64.5833C31.75 65.6884 32.189 66.7482 32.9704 67.5296C33.7518 68.311 34.8116 68.75 35.9167 68.75H65.0833C66.1884 68.75 67.2482 68.311 68.0296 67.5296C68.811 66.7482 69.25 65.6884 69.25 64.5833V43.75" stroke="#FAFAFA" stroke-width="2"/>
<path d="M56.4023 68.75V56.25C56.4023 55.145 55.9634 54.0852 55.182 53.3038C54.4006 52.5224 53.3407 52.0834 52.2357 52.0834H48.069C46.9639 52.0834 45.9041 52.5224 45.1227 53.3038C44.3413 54.0852 43.9023 55.145 43.9023 56.25V68.75" stroke="#FAFAFA" stroke-width="2" stroke-miterlimit="16"/>
</svg>
