<svg width="100" height="100" viewBox="0 0 100 100" fill="none" xmlns="http://www.w3.org/2000/svg">
<path opacity="0.3" d="M100 50C100 77.6142 77.6142 100 50 100C22.3858 100 0 77.6142 0 50C0 22.3858 22.3858 0 50 0C77.6142 0 100 22.3858 100 50ZM13.6339 50C13.6339 70.0844 29.9156 86.3661 50 86.3661C70.0844 86.3661 86.3661 70.0844 86.3661 50C86.3661 29.9156 70.0844 13.6339 50 13.6339C29.9156 13.6339 13.6339 29.9156 13.6339 50Z" fill="#2F2E30"/>
<circle cx="50" cy="50" r="36.25" fill="black"/>
<path d="M35.0491 63.3493L35.0489 63.3492C33.9387 62.5214 32.9266 61.2197 32.1917 59.7549C31.4568 58.2901 31.0209 56.7056 31.0209 55.3333V39.8333C31.0209 36.8325 33.2465 33.6035 36.0704 32.5519L36.0713 32.5515L46.4668 28.6559C46.4668 28.6558 46.4668 28.6558 46.4669 28.6558C47.4266 28.2971 48.6918 28.1094 49.9792 28.1094C51.2666 28.1094 52.5318 28.2971 53.4915 28.6558C53.4916 28.6558 53.4916 28.6558 53.4917 28.6559L63.8871 32.5515L63.888 32.5519C66.7119 33.6035 68.9375 36.8325 68.9375 39.8333V55.3125C68.9375 56.6955 68.5014 58.2799 67.7668 59.7416C67.0322 61.2032 66.0203 62.5001 64.9095 63.3283L64.9093 63.3285L55.9509 70.016L55.9509 70.0159L55.9447 70.0207C54.3162 71.2765 52.1782 71.9167 50 71.9167C47.8233 71.9167 45.681 71.2771 44.0066 70.0362C44.0064 70.036 44.0063 70.0359 44.0061 70.0358L35.0491 63.3493ZM47.2211 30.6565L47.2204 30.6568L36.8246 34.5526L36.8239 34.5529C35.8192 34.9311 34.9113 35.7392 34.258 36.6845C33.6045 37.6299 33.1667 38.769 33.1667 39.8542V55.3333C33.1667 56.4257 33.5471 57.6914 34.1129 58.8204C34.6787 59.9492 35.4621 61.0057 36.3259 61.6506L36.3259 61.6507L45.2839 68.3379C46.5855 69.3113 48.3064 69.7812 50.0026 69.7812C51.699 69.7812 53.4242 69.3112 54.7353 68.3392L54.7366 68.3382L63.695 61.6507L63.6959 61.65C64.569 60.9952 65.3523 59.9395 65.916 58.8121C66.4797 57.6848 66.8542 56.4247 66.8542 55.3333V39.8333C66.8542 38.7576 66.4157 37.6236 65.7629 36.6793C65.11 35.7346 64.2036 34.9228 63.2018 34.5339L63.2018 34.5339L63.1963 34.5318L52.8005 30.636L52.8005 30.6359L52.7915 30.6327C52.0116 30.3574 50.9919 30.2291 50.0013 30.2318C49.0115 30.2345 47.994 30.3682 47.2211 30.6565Z" fill="#FAFAFA" stroke="#FAFAFA"/>
<path d="M46.8548 51.2287L47.2083 51.5823L47.5619 51.2287L55.4161 43.3745C55.825 42.9656 56.5084 42.9656 56.9173 43.3745C57.3262 43.7835 57.3262 44.4669 56.9173 44.8758L47.9589 53.8341C47.7452 54.0479 47.4787 54.146 47.2083 54.146C46.9379 54.146 46.6715 54.0479 46.4577 53.8341L43.1036 50.4799C42.6946 50.071 42.6946 49.3876 43.1036 48.9787C43.5125 48.5698 44.1959 48.5698 44.6048 48.9787L46.8548 51.2287Z" fill="#FAFAFA" stroke="#FAFAFA"/>
</svg>
