<svg width="100" height="100" viewBox="0 0 100 100" fill="none" xmlns="http://www.w3.org/2000/svg">
<path opacity="0.3" d="M100 50C100 77.6142 77.6142 100 50 100C22.3858 100 0 77.6142 0 50C0 22.3858 22.3858 0 50 0C77.6142 0 100 22.3858 100 50ZM13.6339 50C13.6339 70.0844 29.9156 86.3661 50 86.3661C70.0844 86.3661 86.3661 70.0844 86.3661 50C86.3661 29.9156 70.0844 13.6339 50 13.6339C29.9156 13.6339 13.6339 29.9156 13.6339 50Z" fill="#696969"/>
<circle cx="50" cy="50" r="36.25" fill="black"/>
<path d="M50.0001 71.5909C61.9244 71.5909 71.591 61.9243 71.591 50C71.591 38.0756 61.9244 28.4091 50.0001 28.4091C38.0758 28.4091 28.4092 38.0756 28.4092 50C28.4092 61.9243 38.0758 71.5909 50.0001 71.5909Z" stroke="#FAFAFA" stroke-width="2" stroke-linecap="round" stroke-linejoin="round"/>
<path d="M56.3635 43.1837C55.9518 42.4697 55.3536 41.8811 54.633 41.4809C53.9124 41.0807 53.0964 40.8839 52.2725 40.9116H47.7271C46.5216 40.9116 45.3654 41.3904 44.513 42.2426C43.6605 43.0948 43.1816 44.2506 43.1816 45.4558C43.1816 46.661 43.6605 47.8168 44.513 48.669C45.3654 49.5212 46.5216 50 47.7271 50H52.2725C53.4781 50 54.6342 50.4787 55.4867 51.3309C56.3391 52.1831 56.818 53.3389 56.818 54.5441C56.818 55.7493 56.3391 56.9051 55.4867 57.7573C54.6342 58.6095 53.4781 59.0883 52.2725 59.0883H47.7271C46.9032 59.116 46.0873 58.9192 45.3667 58.519C44.6461 58.1188 44.0479 57.5302 43.6362 56.8162" stroke="#FAFAFA" stroke-width="2.75" stroke-linecap="round" stroke-linejoin="round"/>
<path d="M50 35.2273V40.1515M50 59.8485V64.7727" stroke="#FAFAFA" stroke-width="2.75" stroke-linecap="round" stroke-linejoin="round"/>
</svg>
