<svg width="101" height="100" viewBox="0 0 101 100" fill="none" xmlns="http://www.w3.org/2000/svg">
<path opacity="0.3" d="M100.5 50C100.5 77.6142 78.1142 100 50.5 100C22.8858 100 0.5 77.6142 0.5 50C0.5 22.3858 22.8858 0 50.5 0C78.1142 0 100.5 22.3858 100.5 50ZM14.1339 50C14.1339 70.0844 30.4156 86.3661 50.5 86.3661C70.5844 86.3661 86.8661 70.0844 86.8661 50C86.8661 29.9156 70.5844 13.6339 50.5 13.6339C30.4156 13.6339 14.1339 29.9156 14.1339 50Z" fill="#2F2E30"/>
<circle cx="50.5" cy="50" r="36.25" fill="black"/>
<path d="M51.1586 47.682V48.182L51.6586 48.182C52.5141 48.182 53.3486 48.4473 54.0471 48.9412C54.7456 49.4351 55.2739 50.1333 55.5591 50.9398C55.588 51.0214 55.6004 51.1079 55.5958 51.1943C55.5912 51.2808 55.5696 51.3655 55.5323 51.4436C55.495 51.5217 55.4426 51.5916 55.3782 51.6495C55.3138 51.7074 55.2387 51.752 55.1571 51.7808C55.0755 51.8096 54.989 51.8221 54.9025 51.8175C54.8161 51.8129 54.7314 51.7913 54.6533 51.754C54.4956 51.6786 54.3743 51.5436 54.3161 51.3787L54.316 51.3785C54.1216 50.829 53.7617 50.3534 53.2857 50.017C52.8098 49.6806 52.2413 49.5 51.6584 49.5002L51.1586 49.5003V50.0002V54.6365V55.1365H51.6586C52.7556 55.1365 53.8077 55.5723 54.5834 56.348C55.3591 57.1237 55.7949 58.1758 55.7949 59.2728C55.7949 60.3698 55.3591 61.4219 54.5834 62.1976C53.8077 62.9733 52.7556 63.4091 51.6586 63.4091H51.1586V63.9091V64.5682H49.8404V63.9091V63.4091L49.3404 63.4091C48.4849 63.4091 47.6504 63.1439 46.9518 62.65C46.2533 62.156 45.725 61.4577 45.4398 60.6511L45.4399 60.6511L45.4349 60.638C45.4032 60.5557 45.3883 60.468 45.3911 60.3799C45.3939 60.2918 45.4143 60.2052 45.4512 60.1252C45.4881 60.0451 45.5406 59.9733 45.6057 59.9139C45.6708 59.8545 45.7472 59.8088 45.8303 59.7794C45.9134 59.7501 46.0015 59.7377 46.0895 59.743C46.1774 59.7483 46.2635 59.7712 46.3424 59.8103C46.4214 59.8494 46.4917 59.904 46.5492 59.9707C46.6067 60.0375 46.6503 60.1151 46.6773 60.199L46.6795 60.2061L46.682 60.2131C47.0705 61.3081 48.1138 62.091 49.3404 62.091H49.8404V61.591V56.9546V56.4546H49.3404C48.2434 56.4546 47.1913 56.0189 46.4156 55.2431C45.6399 54.4674 45.2041 53.4154 45.2041 52.3183C45.2041 51.2213 45.6399 50.1692 46.4156 49.3935C47.1913 48.6178 48.2434 48.182 49.3404 48.182H49.8404V47.682V47.0229H51.1586V47.682ZM49.8404 50.0002V49.5002H49.3404C48.593 49.5002 47.8762 49.7971 47.3477 50.3256C46.8192 50.8541 46.5223 51.5709 46.5223 52.3183C46.5223 53.0658 46.8192 53.7826 47.3477 54.3111C47.8762 54.8396 48.593 55.1365 49.3404 55.1365H49.8404V54.6365V50.0002ZM51.1586 61.591V62.091H51.6586C52.406 62.091 53.1228 61.794 53.6513 61.2655C54.1798 60.737 54.4767 60.0202 54.4767 59.2728C54.4767 58.5254 54.1798 57.8086 53.6513 57.2801C53.1228 56.7516 52.406 56.4546 51.6586 56.4546H51.1586V56.9546V61.591Z" fill="#FAFAFA" stroke="#FAFAFA"/>
<path d="M62.496 33.9013L61.9109 34.7567L58.4835 39.7674L58.0708 39.4851L58.2383 39.9562C53.3592 41.6904 47.6008 41.6905 42.7227 39.9538L42.5687 39.899L42.4768 39.7637L40.2514 36.487L39.5052 35.3884L40.7906 35.7221C41.4447 35.8919 42.1047 36.0386 42.7691 36.1618C45.4106 36.649 48.2226 36.7532 50.7281 36.0295L62.496 33.9013ZM62.496 33.9013L61.4623 33.9757M62.496 33.9013L61.4623 33.9757M61.4623 33.9757C58.2314 34.2083 54.4036 34.9653 50.7284 36.0294L61.4623 33.9757ZM59.5533 40.8683L59.7839 41.1114C62.1479 43.6033 64.1254 46.4352 65.6506 49.5128L65.6516 49.5147C67.2408 52.7566 68.1279 56.0388 67.9831 58.9063L67.9831 58.9063C67.8418 61.699 66.732 64.1191 64.2047 65.9054L64.2046 65.9054C61.598 67.7472 57.2948 69.042 50.5438 69.042C43.7871 69.042 39.4659 67.7696 36.8371 65.9499L36.8369 65.9498C34.2924 64.1864 33.1694 61.7986 33.012 59.0396L59.5533 40.8683ZM59.5533 40.8683L59.2408 40.9892M59.5533 40.8683L59.2408 40.9892M59.2408 40.9892C53.7759 43.1025 47.1969 43.1025 41.7318 40.9914L41.5517 41.4578L41.1851 41.1178C38.9205 43.5587 36.8132 46.5537 35.3007 49.6707L35.3006 49.6707M59.2408 40.9892L35.3006 49.6707M35.3006 49.6707C33.7178 52.9339 32.8489 56.2006 33.012 59.0394L35.3006 49.6707ZM62.8581 32.6145C63.4654 32.915 63.9839 33.2015 64.3994 33.4541L60.4098 39.2862L60.1782 39.6249L60.4651 39.9182C62.897 42.4044 65.1928 45.578 66.8373 48.9349C68.4842 52.2965 69.4607 55.806 69.3006 58.9732C69.1416 62.1196 67.8634 64.9352 64.967 66.9815C62.0485 69.0434 57.4355 70.3601 50.545 70.3601C43.6532 70.3601 39.0256 69.0669 36.0884 67.0329C33.174 65.0147 31.8755 62.2342 31.6973 59.1142C31.5177 55.9723 32.4763 52.4757 34.1165 49.0956C35.7542 45.7205 38.0542 42.4973 40.5105 39.913L40.7881 39.6208L40.5616 39.2875L36.5996 33.4579C36.8272 33.3212 37.0844 33.1748 37.3695 33.0229L37.3695 33.0229L37.3712 33.022C37.611 32.8931 37.8693 32.7605 38.1464 32.6253L38.3918 32.5057C41.2106 31.1621 45.6809 29.6368 50.545 29.6368C55.4471 29.6368 59.9149 31.1857 62.6997 32.5376C62.6997 32.5376 62.6997 32.5376 62.6997 32.5377L62.8564 32.6137C62.857 32.614 62.8575 32.6142 62.8581 32.6145ZM43.0069 34.8652L43.0073 34.8653C45.5406 35.3319 48.1253 35.4098 50.3607 34.7622L50.3614 34.762C52.8269 34.0438 55.3345 33.4789 57.8698 33.0706L57.9345 32.0982C55.7665 31.4454 53.2228 30.955 50.5438 30.955C46.4634 30.955 42.6712 32.0917 40.0234 33.2155L40.2187 33.6758L40.0762 34.155C41.0185 34.4354 42.0047 34.6797 43.0069 34.8652Z" fill="#FAFAFA" stroke="#FAFAFA"/>
</svg>
