<svg width="100" height="100" viewBox="0 0 100 100" fill="none" xmlns="http://www.w3.org/2000/svg">
<path opacity="0.3" d="M100 50C100 77.6142 77.6142 100 50 100C22.3858 100 0 77.6142 0 50C0 22.3858 22.3858 0 50 0C77.6142 0 100 22.3858 100 50ZM13.6339 50C13.6339 70.0844 29.9156 86.3661 50 86.3661C70.0844 86.3661 86.3661 70.0844 86.3661 50C86.3661 29.9156 70.0844 13.6339 50 13.6339C29.9156 13.6339 13.6339 29.9156 13.6339 50Z" fill="#2F2E30"/>
<circle cx="50" cy="50" r="36.25" fill="black"/>
<path d="M39.583 39.5833V35.4166C39.583 34.2101 39.9323 33.0294 40.5886 32.017C41.2448 31.0046 42.1801 30.2038 43.2815 29.7113C44.3829 29.2187 45.6033 29.0555 46.7954 29.2413C47.9875 29.4271 49.1004 29.9539 49.9997 30.7583C50.899 29.9539 52.0118 29.4271 53.2039 29.2413C54.396 29.0555 55.6164 29.2187 56.7178 29.7113C57.8192 30.2038 58.7545 31.0046 59.4108 32.017C60.0671 33.0294 60.4163 34.2101 60.4163 35.4166V39.5833H63.5413C64.3701 39.5833 65.165 39.9125 65.7511 40.4986C66.3371 41.0846 66.6663 41.8795 66.6663 42.7083V63.552C66.6663 65.4831 65.8992 67.3351 64.5337 68.7006C63.1682 70.0661 61.3162 70.8333 59.3851 70.8333H41.6663C39.4562 70.8333 37.3366 69.9553 35.7738 68.3925C34.211 66.8297 33.333 64.7101 33.333 62.4999V42.7083C33.333 41.8795 33.6622 41.0846 34.2483 40.4986C34.8344 39.9125 35.6292 39.5833 36.458 39.5833H39.583ZM53.4059 67.7083C52.5561 66.4891 52.1015 65.0382 52.1038 63.552V42.7083H36.458V62.4999C36.458 63.1839 36.5927 63.8612 36.8545 64.4931C37.1162 65.125 37.4999 65.6992 37.9835 66.1828C38.4671 66.6664 39.0413 67.0501 39.6732 67.3118C40.3051 67.5736 40.9824 67.7083 41.6663 67.7083H53.4059ZM48.958 39.5833V35.4166C48.958 34.5878 48.6288 33.793 48.0427 33.2069C47.4567 32.6209 46.6618 32.2916 45.833 32.2916C45.0042 32.2916 44.2094 32.6209 43.6233 33.2069C43.0372 33.793 42.708 34.5878 42.708 35.4166V39.5833H48.958ZM52.083 39.5833H57.2913V35.4166C57.2914 34.7733 57.093 34.1457 56.7231 33.6195C56.3532 33.0932 55.8299 32.6938 55.2247 32.476C54.6194 32.2581 53.9617 32.2324 53.3413 32.4022C52.7208 32.572 52.1679 32.9292 51.758 33.4249C51.9684 34.0499 52.083 34.7208 52.083 35.4166V39.5833ZM55.2288 63.552C55.2288 64.6543 55.6667 65.7115 56.4462 66.4909C57.2256 67.2704 58.2828 67.7083 59.3851 67.7083C60.4874 67.7083 61.5446 67.2704 62.324 66.4909C63.1035 65.7115 63.5413 64.6543 63.5413 63.552V42.7083H55.2288V63.552Z" fill="white"/>
</svg>
