<svg width="100" height="100" viewBox="0 0 100 100" fill="none" xmlns="http://www.w3.org/2000/svg">
<path opacity="0.3" d="M100 50C100 77.6142 77.6142 100 50 100C22.3858 100 0 77.6142 0 50C0 22.3858 22.3858 0 50 0C77.6142 0 100 22.3858 100 50ZM13.6339 50C13.6339 70.0844 29.9156 86.3661 50 86.3661C70.0844 86.3661 86.3661 70.0844 86.3661 50C86.3661 29.9156 70.0844 13.6339 50 13.6339C29.9156 13.6339 13.6339 29.9156 13.6339 50Z" fill="#2F2E30"/>
<circle cx="50" cy="50" r="36.25" fill="black"/>
<g clip-path="url(#clip0_861_4801)">
<path d="M41.6667 56.2502C41.6667 53.949 39.8012 52.0835 37.5 52.0835C35.1989 52.0835 33.3334 53.949 33.3334 56.2502V60.4168C33.3334 62.718 35.1989 64.5835 37.5 64.5835C39.8012 64.5835 41.6667 62.718 41.6667 60.4168V56.2502Z" stroke="white" stroke-width="2" stroke-linecap="round" stroke-linejoin="round"/>
<path d="M66.6667 56.2502C66.6667 53.949 64.8012 52.0835 62.5 52.0835C60.1989 52.0835 58.3334 53.949 58.3334 56.2502V60.4168C58.3334 62.718 60.1989 64.5835 62.5 64.5835C64.8012 64.5835 66.6667 62.718 66.6667 60.4168V56.2502Z" stroke="white" stroke-width="2" stroke-linecap="round" stroke-linejoin="round"/>
<path d="M33.3334 56.2502V50.0002C33.3334 45.5799 35.0893 41.3407 38.2149 38.2151C41.3405 35.0894 45.5798 33.3335 50 33.3335C54.4203 33.3335 58.6595 35.0894 61.7852 38.2151C64.9108 41.3407 66.6667 45.5799 66.6667 50.0002V56.2502" stroke="white" stroke-width="2" stroke-linecap="round" stroke-linejoin="round"/>
<path d="M62.5 64.5835C62.5 66.2411 61.183 67.8308 58.8388 69.0029C56.4946 70.175 53.3152 70.8335 50 70.8335" stroke="white" stroke-width="2" stroke-linecap="round" stroke-linejoin="round"/>
</g>
<defs>
<clipPath id="clip0_861_4801">
<rect width="50" height="50" fill="white" transform="translate(25 25)"/>
</clipPath>
</defs>
</svg>
