<svg width="50" height="50" viewBox="0 0 50 50" fill="none" xmlns="http://www.w3.org/2000/svg">
<rect width="50" height="50" rx="25" fill="#08E726"/>
<path d="M23.1928 17.8L18.964 12.9188C18.4765 12.3563 17.5828 12.3588 17.0165 12.9263L13.539 16.41C12.504 17.4463 12.2078 18.985 12.8065 20.2188C16.3836 27.625 22.3566 33.6064 29.7578 37.1938C30.9903 37.7925 32.5278 37.4963 33.5628 36.46L37.0728 32.9438C37.6415 32.375 37.6428 31.4763 37.0753 30.9888L32.1753 26.7825C31.6628 26.3425 30.8665 26.4 30.3528 26.915L28.6478 28.6225C28.5605 28.714 28.4456 28.7743 28.3207 28.7942C28.1959 28.814 28.0679 28.7924 27.9565 28.7325C25.1696 27.1276 22.8578 24.8128 21.2565 22.0238C21.1966 21.9122 21.1749 21.784 21.1947 21.659C21.2146 21.5339 21.275 21.4187 21.3665 21.3313L23.0665 19.63C23.5815 19.1125 23.6378 18.3125 23.1928 17.7988V17.8Z" stroke="white" stroke-width="1.5" stroke-linecap="round" stroke-linejoin="round"/>
</svg>
